<svg xmlns="http://www.w3.org/2000/svg" width="92" height="92" viewBox="0 0 92 92">
  <defs>
    <style>
      .cls-1 {
        fill: #fff;
        fill-rule: evenodd;
      }
    </style>
  </defs>
  <path class="cls-1" d="M645,1908.71V1961a8,8,0,0,1-8,8H574a8,8,0,0,1-8-8v-63a8,8,0,0,1,8-8h52.291A16,16,0,1,1,645,1908.71ZM626,1893H575a6,6,0,0,0-6,6v61a6,6,0,0,0,6,6h61a6,6,0,0,0,6-6v-51A16,16,0,0,1,626,1893Zm21,3.33H644.18c-0.338,0-.723.02-1.155,0.05s-0.825.08-1.177,0.12c0.572-.57,1.125-1.16,1.661-1.76a19.236,19.236,0,0,0,1.43-1.8,9.65,9.65,0,0,0,1-1.8,4.587,4.587,0,0,0,.374-1.76,4.658,4.658,0,0,0-.33-1.8,3.908,3.908,0,0,0-.946-1.38,4.39,4.39,0,0,0-1.463-.89,6.108,6.108,0,0,0-4.455.24,8.116,8.116,0,0,0-2.112,1.64l1.76,1.71a7.743,7.743,0,0,1,1.122-.99,2.3,2.3,0,0,1,1.364-.42,1.971,1.971,0,0,1,1.452.53,2.116,2.116,0,0,1,.528,1.55,3.209,3.209,0,0,1-.451,1.55,10.733,10.733,0,0,1-1.254,1.75c-0.536.63-1.174,1.3-1.914,2.02s-1.559,1.48-2.453,2.31v1.82H647v-2.69Zm-23.321,39.24c2.426,12.36-3.382,20.57-17.3,24.37a1.679,1.679,0,0,1-.38.06h-0.033a1.653,1.653,0,0,1-.378-0.06,0.28,0.28,0,0,0-.089-0.02,0.015,0.015,0,0,0-.016-0.01c-13.8-3.82-19.573-12.03-17.184-24.39a48.55,48.55,0,0,1-1.4-9.05c-2.989-5.34-3.668-10.03-1.986-13.93,1.885-4.38,6.573-7.38,13.934-8.92,1.36-.28,2.685-0.55,3.967-0.81,6.778-1.37,12.63-2.56,16.905-4.65a1.492,1.492,0,0,1,1.434.06,1.584,1.584,0,0,1,.761,1.25,15.308,15.308,0,0,1-.986,6.84c3.424,1.84,5.645,4.3,6.58,7.36,1.127,3.68.317,7.99-2.381,12.8A49.584,49.584,0,0,1,623.675,1935.57Zm-17.7,21.19c11.28-3.19,16.119-9.1,15.021-18.48a26.339,26.339,0,0,0-3.642,3.29,1.517,1.517,0,0,1-1.667.45l-1.219-.45a18.878,18.878,0,0,0-8.491-1.66c-3.968,0-5.128.43-8.571,1.71l-1.082.4a1.522,1.522,0,0,1-1.672-.45,26.513,26.513,0,0,0-3.682-3.31C589.914,1947.66,594.746,1953.57,605.979,1956.76Zm-14.749-22.23a43.533,43.533,0,0,1,5,4.15l0.129-.05c3.615-1.34,5.11-1.89,9.617-1.89h0a21.621,21.621,0,0,1,9.526,1.85l0.27,0.09a45.306,45.306,0,0,1,4.982-4.16,46.511,46.511,0,0,0,1.215-7.24,8.894,8.894,0,0,1-4.82-3.33,35.2,35.2,0,0,1-22.344,0,8.866,8.866,0,0,1-4.776,3.33A46.853,46.853,0,0,0,591.23,1934.53Zm33.337-19.91c-0.685-2.24-2.413-4.09-5.121-5.53-2.644,3.88-7.365,6.91-14.164,9.04a1.518,1.518,0,0,1-1.921-1.05,1.6,1.6,0,0,1,1.022-1.98c9.121-2.86,13.87-7.16,14.438-13.11-4.273,1.67-9.5,2.73-15.417,3.93q-1.918.39-3.951,0.81c-6.237,1.3-10.3,3.76-11.733,7.1-1.193,2.77-.683,6.26,1.474,10.38a5.76,5.76,0,0,0,3.658-2.89,1.015,1.015,0,0,1,.118-0.14,1.74,1.74,0,0,1,.191-0.23,2.162,2.162,0,0,1,.25-0.19,1.086,1.086,0,0,1,.235-0.12,1.687,1.687,0,0,1,.312-0.09,2.224,2.224,0,0,1,.259-0.02,1.2,1.2,0,0,1,.322.05,0.974,0.974,0,0,1,.169.02,32.842,32.842,0,0,0,22.544,0,0.929,0.929,0,0,1,.166-0.02,1.187,1.187,0,0,1,.322-0.05,1.248,1.248,0,0,1,.273.03,0.99,0.99,0,0,1,.291.07,1.333,1.333,0,0,1,.26.14,1.229,1.229,0,0,1,.228.17,1.4,1.4,0,0,1,.206.25c0.034,0.05.083,0.08,0.112,0.13a5.84,5.84,0,0,0,3.716,2.89C624.779,1920.49,625.377,1917.26,624.567,1914.62Zm-22.349,28.41a13.381,13.381,0,0,1,7.577,0,1.593,1.593,0,0,1,1.055,1.96,1.54,1.54,0,0,1-1.479,1.15,1.561,1.561,0,0,1-.424-0.06,10.327,10.327,0,0,0-5.881,0,1.528,1.528,0,0,1-1.9-1.09A1.593,1.593,0,0,1,602.218,1943.03Z" transform="translate(-566 -1877)"/>
</svg>
