<svg xmlns="http://www.w3.org/2000/svg" width="94" height="92" viewBox="0 0 94 92">
  <defs>
    <style>
      .cls-1 {
        fill: #fff;
        fill-rule: evenodd;
      }
    </style>
  </defs>
  <path id="icon" class="cls-1" d="M1028,1908.95V1961a8,8,0,0,1-8,8H957a8,8,0,0,1-8-8v-63a8,8,0,0,1,8-8h54.29A16,16,0,1,1,1028,1908.95ZM1011,1893H958a6,6,0,0,0-6,6v61a6,6,0,0,0,6,6h61a6,6,0,0,0,6-6v-51.14A15.985,15.985,0,0,1,1011,1893Zm19.97-2.12a3.055,3.055,0,0,0,.6-1.92,3.848,3.848,0,0,0-.35-1.68,3.572,3.572,0,0,0-.97-1.24,4.29,4.29,0,0,0-1.52-.78,7.044,7.044,0,0,0-1.96-.26,5.54,5.54,0,0,0-2.36.49,8.538,8.538,0,0,0-2.03,1.35l1.63,2.05a7,7,0,0,1,1.26-.93,2.656,2.656,0,0,1,1.35-.34,1.785,1.785,0,0,1,1.27.42,1.553,1.553,0,0,1,.44,1.17,1.865,1.865,0,0,1-.17.79,1.508,1.508,0,0,1-.55.61,2.875,2.875,0,0,1-1.01.4,7.494,7.494,0,0,1-1.56.14v2.36a9.41,9.41,0,0,1,1.86.15,3.651,3.651,0,0,1,1.14.41,1.387,1.387,0,0,1,.58.65,2.163,2.163,0,0,1,.17.86,1.481,1.481,0,0,1-.62,1.27,2.793,2.793,0,0,1-1.64.44,3.488,3.488,0,0,1-1.66-.41,5.783,5.783,0,0,1-1.39-1.05l-1.49,2.12a5.512,5.512,0,0,0,1.95,1.49,6.769,6.769,0,0,0,2.89.56,6.858,6.858,0,0,0,2-.29,5.1,5.1,0,0,0,1.65-.82,3.844,3.844,0,0,0,1.11-1.32,3.686,3.686,0,0,0,.42-1.78,3.312,3.312,0,0,0-.78-2.29,4.246,4.246,0,0,0-1.98-1.24v-0.09A4.29,4.29,0,0,0,1030.97,1890.88ZM989,1954a25,25,0,1,1,25-25A25,25,0,0,1,989,1954Zm0-46a21,21,0,1,0,21,21A21,21,0,0,0,989,1908Zm8,24h-9a2,2,0,0,1-2-2v-12a2,2,0,0,1,4,0v10h7A2,2,0,0,1,997,1932Z" transform="translate(-949 -1877)"/>
</svg>
