<svg xmlns="http://www.w3.org/2000/svg" width="120" height="120" viewBox="0 0 120 120">
  <defs>
    <style>
      .cls-1 {
        fill: #fff5f4;
      }

      .cls-2 {
        fill: #312228;
        fill-rule: evenodd;
        opacity: 0.4;
      }
    </style>
  </defs>
  <rect class="cls-1" width="120" height="120" rx="16" ry="16"/>
  <path class="cls-2" d="M104,120h-0.677L80.1,102.9l-11.211,6.659a2.943,2.943,0,0,1-1.332.333,2.623,2.623,0,0,1-1.776-.776l-5.772-5.772-5.772,5.772a2.5,2.5,0,0,1-3,.333l-11.211-6.66L16.659,120H16a15.933,15.933,0,0,1-5.971-1.163L38.255,98.131l4.662-7.1a2.478,2.478,0,0,1,2.886-1L60.011,94.8l14.208-4.773a2.636,2.636,0,0,1,2.886,1l4.662,7.1,28.219,20.7A15.933,15.933,0,0,1,104,120ZM46.025,95.357l-2.442,3.774,8.547,5.105,5.106-5.105Zm27.972,0L62.786,99.131l5.106,5.105,8.547-5.105ZM90.98,54.845c-1.221.444-2.331,0.888-3.552,1.332v1.332c0,16.316-15.651,32.41-27.417,32.41S32.594,73.824,32.483,57.4v-2.22a13.142,13.142,0,0,1-2.886-.222,2.562,2.562,0,0,1-2-3,2.516,2.516,0,0,1,2.553-2c1.11-19.534,11.322-29.968,29.859-29.968,17.427,0,27.972,10.655,29.748,30.078A2.4,2.4,0,0,1,92.2,51.516,2.528,2.528,0,0,1,90.98,54.845ZM37.589,57.509c0,14.1,13.986,27.415,22.422,27.415S82.433,71.716,82.433,57.509a47.206,47.206,0,0,1-6.66.777,29.029,29.029,0,0,1-16.1-4.662,27.282,27.282,0,0,1-9.324-10.211c-2.442,4.551-6.66,9.545-12.765,11.21v2.886Zm47.4-6.326c-0.111-1.221-.222-2.442-0.444-3.663a32.321,32.321,0,0,1-6.327.666,20.758,20.758,0,0,1-12.1-3.552c-7.326-5.216-8.547-14.1-8.547-14.428a2.654,2.654,0,0,1,2.22-2.775,2.479,2.479,0,0,1,2.775,2.109c0,0.111,1,7.1,6.549,10.988,3.552,2.553,8.436,3.219,14.43,2.109a35.081,35.081,0,0,0-1.776-4.773,13.154,13.154,0,0,1-3.552.555,14.463,14.463,0,0,1-9.99-4.218,2.512,2.512,0,0,1,3.552-3.552,9.372,9.372,0,0,0,7.215,2.664c-3.774-4.995-9.657-8.436-18.981-8.436-10.1,0-17.094,3.441-21.09,10.323a2.588,2.588,0,0,1,2.22,0,2.427,2.427,0,0,1,1.11,3.329c-0.666,1.443-3.108,5.771-6.549,6.327a24.6,24.6,0,0,0-.444,4.994C44.249,48.186,47.69,37.2,47.8,36.643a1.172,1.172,0,0,1,.222-0.555,21.671,21.671,0,0,1-.333-3.773,2.442,2.442,0,0,1,4.884,0c0,6.438,3.774,12.986,9.768,16.87C66.227,51.737,74,55.067,85.1,51.516,85.1,51.4,84.986,51.294,84.986,51.183Z"/>
</svg>
