<svg xmlns="http://www.w3.org/2000/svg" width="130" height="40" viewBox="0 0 130 40">
  <defs>
    <style>
      .cls-1 {
        fill: #3734c2;
        fill-rule: evenodd;
      }
    </style>
  </defs>
  <path class="cls-1" d="M28.4,15.312q-0.373,3.614-1.334,4.549H31.6a3.3,3.3,0,0,1-.613-2.015q0-.457.044-1.039l0.46-6.294,1.706,3.406a6.076,6.076,0,0,0-.416,1.87,2.231,2.231,0,0,0,.635,1.651,2.279,2.279,0,0,0,1.684.634,2.134,2.134,0,0,0,1.4-.468,1.522,1.522,0,0,0,.568-1.236,1.638,1.638,0,0,0-.394-1.091,1.281,1.281,0,0,0-1.028-.467,1.074,1.074,0,0,0-1.2,1.226,0.893,0.893,0,0,1-.35-0.664q0-2.182,3.434-5.318l0.656,6.149a15.17,15.17,0,0,1,.11,1.537,3.787,3.787,0,0,1-.656,2.119h4.638a4.677,4.677,0,0,1-.941-2.513Q41.178,16.454,41,14.543,40.5,9.1,40.5,7.751A4.224,4.224,0,0,1,41.353,5.2H37.546a23.925,23.925,0,0,1-1.335,2.7l-1.487,2.617L32.339,5.2H28.1a2.731,2.731,0,0,1,1.05,2.056q0,0.582-.153,2.181ZM15.352,19.56q0.734,0.405,4.277.4,2.822,0,3.369-.021a6,6,0,0,0,3.041-.623,3.662,3.662,0,0,0,.744-2.721q0-8.682-.744-10.49a1.351,1.351,0,0,0-.765-0.79,7.325,7.325,0,0,0-2.319-.229H20.416q-1.247,3.1-1.465,3.677a12.544,12.544,0,0,0-.9,3.7,2.038,2.038,0,0,0,.535,1.433A1.829,1.829,0,0,0,20,14.481a2.2,2.2,0,0,0,1.356-.425,1.366,1.366,0,0,0,.568-1.154,1.473,1.473,0,0,0-.4-1.038,1.351,1.351,0,0,0-1.039-.437,1.2,1.2,0,0,0-1.181.666,1.272,1.272,0,0,1-.2-0.644,11.785,11.785,0,0,1,.985-3.719H21.75a2.437,2.437,0,0,1,1.116.146,0.969,0.969,0,0,1,.306.54,36.308,36.308,0,0,1,.372,6.959,1.745,1.745,0,0,1-.481,1.412,2.114,2.114,0,0,1-1.247.291q-0.219,0-.7-0.02c-0.321-.015-0.576-0.021-0.766-0.021a6.234,6.234,0,0,1-2.515-.27,1.615,1.615,0,0,1-.372-1.308q0-7.042.591-7.541a1.025,1.025,0,0,1,.678-0.187h0.219l0.787-2.638a4.416,4.416,0,0,1-1.094.042L17.55,5.091q-1.946,0-2.418.727T14.444,10.95q-0.176,3.032-.176,5.65a7.527,7.527,0,0,0,.132,1.641A1.939,1.939,0,0,0,15.352,19.56Zm-11.5.3H11.8q1.6,0,1.6,1.122a2.246,2.246,0,0,1-.044.415,1,1,0,0,0-.853-0.415,1.073,1.073,0,0,0-.831.332,1.179,1.179,0,0,0-.307.831,1.159,1.159,0,0,0,1.313,1.309,1.139,1.139,0,0,0,1.137-.665,3.672,3.672,0,0,0,.175-1.329V17.514q-0.569.021-1.378,0.083L10.221,7.418A7.5,7.5,0,0,1,10,5.549V5.2H3.812a3.161,3.161,0,0,1,.853,2.119,2.344,2.344,0,0,1-.066.561L2.456,17.6Q1.6,17.535,1.033,17.514L1.011,21.4a3.935,3.935,0,0,0,.176,1.371,1.117,1.117,0,0,0,1.116.686,1.31,1.31,0,0,0,.973-0.364,1.284,1.284,0,0,0,.361-0.945A1.007,1.007,0,0,0,2.52,20.984a0.965,0.965,0,0,0-.853.415,2.261,2.261,0,0,1-.043-0.415Q1.624,19.861,3.855,19.861Zm1.991-4.279L7.181,7.959,8.887,16q0.263,1.184.372,1.787H5.43Q5.693,16.309,5.846,15.583ZM127.59,3.025a1.132,1.132,0,0,0,.915-1.039,0.937,0.937,0,0,0-.292-0.685,0.939,0.939,0,0,0-.686-0.291,1.715,1.715,0,0,0-1.06.54l-2.891,2.535h1.143Zm-8.3,16.577h3.722a0.889,0.889,0,0,1-.1-0.436V17.42l4.409-7v6.419a4.162,4.162,0,0,1-.77,2.763H131a4.18,4.18,0,0,1-.729-2.681V7.076A3.229,3.229,0,0,1,131,4.936h-3.764l-4.326,7.125V7.138a3.32,3.32,0,0,1,.728-2.2h-4.346A4.275,4.275,0,0,1,120,7.595V17.42A3.4,3.4,0,0,1,119.292,19.6Zm-30.838.042q1.56-.042,2.329-0.042c0.11,0,.278.01,0.5,0.031s0.381,0.032.479,0.032V15.406a2.151,2.151,0,0,1-1.186,1.308,4.793,4.793,0,0,1-1.788.249,8.222,8.222,0,0,1-3.3-.353A1.631,1.631,0,0,1,85,15.218l0.063-4.84a5,5,0,0,1,.312-1.932A1.663,1.663,0,0,1,87,7.554h1.455a2.208,2.208,0,0,1,1.913.747A3.9,3.9,0,0,1,90.8,10.42a3.646,3.646,0,0,1-.291,1.516,1.243,1.243,0,0,1-1.143.852,0.673,0.673,0,0,1-.541-0.249,1.177,1.177,0,0,0,.583-1.08,1.132,1.132,0,0,0-.406-0.893,1.421,1.421,0,0,0-.967-0.354,1.4,1.4,0,0,0-1.081.426,1.566,1.566,0,0,0-.395,1.111,1.666,1.666,0,0,0,.592,1.361,2.231,2.231,0,0,0,1.467.489q3.223,0,3.223-5.5V5.04Q90.929,5.1,90.367,5.1q-0.79,0-2.35-.072t-2.35-.073A7.922,7.922,0,0,0,83.9,5.1a2.082,2.082,0,0,0-1.372,1q-0.52.955-.52,7.062v1.5q0.021,1.017.021,1.516,0,2.265.915,2.95a5.93,5.93,0,0,0,3.181.561Q86.895,19.685,88.454,19.644ZM56.264,5.871Q55.91,4.915,53.29,4.915H49.984q-2.163.021-3.328,0.021a3.318,3.318,0,0,1,.728,2.2v9.7a4.228,4.228,0,0,1-.728,2.763h4.409a3.385,3.385,0,0,1-.728-2.244v-1.2a1.6,1.6,0,0,0,1.227.581A1.267,1.267,0,0,0,53,15.3a1.1,1.1,0,0,0-1.144-1.329,1.616,1.616,0,0,0-.77.229,1.252,1.252,0,0,1,1.165-.893l2.246-.416a2.969,2.969,0,0,0,1.685-.686,6.171,6.171,0,0,0,.354-2.825q0-1.372-.062-2.254A4.774,4.774,0,0,0,56.264,5.871ZM53.332,11.7a3.617,3.617,0,0,1-1.352.987A8.557,8.557,0,0,0,50.337,13.7V7.408h2.1a1.266,1.266,0,0,1,.728.146q0.333,0.227.332,3.095A2.52,2.52,0,0,1,53.332,11.7Zm54.305,7.6q0.7,0.405,4.065.4,2.684,0,3.2-.02a5.466,5.466,0,0,0,2.889-.624,3.792,3.792,0,0,0,.708-2.721q0-8.683-.708-10.49a1.316,1.316,0,0,0-.727-0.789,6.635,6.635,0,0,0-2.2-.229H112.45q-1.185,3.095-1.392,3.677a13.067,13.067,0,0,0-.853,3.7,2.1,2.1,0,0,0,.509,1.433,1.7,1.7,0,0,0,1.342.581,2.019,2.019,0,0,0,1.289-.425,1.391,1.391,0,0,0,.54-1.153A1.516,1.516,0,0,0,113.5,11.6a1.254,1.254,0,0,0-.987-0.436,1.134,1.134,0,0,0-1.123.665,1.307,1.307,0,0,1-.187-0.644,12.288,12.288,0,0,1,.936-3.719h1.58a2.222,2.222,0,0,1,1.061.146,0.98,0.98,0,0,1,.291.539,38.241,38.241,0,0,1,.353,6.959,1.8,1.8,0,0,1-.457,1.413,1.938,1.938,0,0,1-1.185.291q-0.209,0-.665-0.02c-0.306-.015-0.549-0.021-0.729-0.021a5.662,5.662,0,0,1-2.391-.27,1.672,1.672,0,0,1-.354-1.309q0-7.042.562-7.54a0.944,0.944,0,0,1,.645-0.187h0.208l0.748-2.638a3.979,3.979,0,0,1-1.039.042l-1.041-.042q-1.85,0-2.3.728t-0.655,5.131q-0.168,3.032-.167,5.65a7.917,7.917,0,0,0,.125,1.641A1.937,1.937,0,0,0,107.637,19.3ZM59.05,7.928L62.4,14.741q-0.811,2.368-.956,2.639A5.866,5.866,0,0,1,59.8,19.6h4.429a2.126,2.126,0,0,1-.125-0.748,3.965,3.965,0,0,1,.333-1.5l4.055-9.784a9.575,9.575,0,0,1,1.518-2.638q-0.6-.021-1.975-0.1-1.269-.1-1.955-0.1a3.506,3.506,0,0,0-1.893.519,1.848,1.848,0,0,0-.936,1.621,1.3,1.3,0,0,0,.281.831,0.918,0.918,0,0,0,.759.353A0.836,0.836,0,0,0,65.226,7.1a0.894,0.894,0,0,0-.832-0.831A0.773,0.773,0,0,0,64,6.39a0.785,0.785,0,0,1,.811-0.747,1.031,1.031,0,0,1,.707.28,0.879,0.879,0,0,1,.312.675,9.79,9.79,0,0,1-.811,2.535Q64.457,10.44,63.9,11.77L61.858,7.262A3.3,3.3,0,0,1,61.484,6a1.618,1.618,0,0,1,.395-1.059H56.825A7.894,7.894,0,0,1,59.05,7.928Zm18.862,3.531a1.131,1.131,0,0,0-.406-0.893,1.421,1.421,0,0,0-.967-0.354,1.4,1.4,0,0,0-1.081.426,1.566,1.566,0,0,0-.395,1.111,1.665,1.665,0,0,0,.592,1.361,2.231,2.231,0,0,0,1.467.489q3.223,0,3.223-5.5V5.04Q79.429,5.1,78.868,5.1q-0.79,0-2.35-.072t-2.35-.073A7.918,7.918,0,0,0,72.4,5.1a2.082,2.082,0,0,0-1.372,1q-0.52.955-.52,7.062v1.5q0.021,1.017.021,1.516,0,2.265.915,2.95a5.929,5.929,0,0,0,3.181.561q0.77,0,2.329-.041t2.329-.042c0.111,0,.277.01,0.5,0.031s0.381,0.032.478,0.032V15.406a2.151,2.151,0,0,1-1.186,1.308,4.8,4.8,0,0,1-1.788.249,8.222,8.222,0,0,1-3.3-.353,1.631,1.631,0,0,1-.488-1.393l0.063-4.84a5,5,0,0,1,.312-1.932A1.663,1.663,0,0,1,75.5,7.554h1.456a2.208,2.208,0,0,1,1.913.747A3.9,3.9,0,0,1,79.3,10.42a3.654,3.654,0,0,1-.291,1.516,1.244,1.244,0,0,1-1.144.852,0.672,0.672,0,0,1-.541-0.249A1.177,1.177,0,0,0,77.912,11.459Zm25.909,2.784q-1.351-3.324-2.474-6.44a8.115,8.115,0,0,1,2.911-2.866H99.516a2.289,2.289,0,0,1,.5,1.142,11.065,11.065,0,0,1-1.435,2.887q-0.811,1.33-1.622,2.659V7.7a4.336,4.336,0,0,1,.728-2.763H93.257a3.32,3.32,0,0,1,.727,2.2v9.7a4.335,4.335,0,0,1-.727,2.763h4.429a3.39,3.39,0,0,1-.728-2.244V15.135a1.679,1.679,0,0,0,1.394.707,1.71,1.71,0,0,0,1.216-.457,1.546,1.546,0,0,0,.489-1.184,1.661,1.661,0,0,0-.291-0.977,1.072,1.072,0,0,0-.895-0.477,0.888,0.888,0,0,0-.895.5,0.635,0.635,0,0,1-.145-0.395,5.642,5.642,0,0,1,1.351-2.14l1.582,3.7a14.97,14.97,0,0,1,1.226,4.217,2.546,2.546,0,0,1-.228.976h4.761Q105.984,19.518,103.821,14.243Zm5.428,19.295q-1.363-3.323-2.5-6.44a8.166,8.166,0,0,1,2.937-2.866h-4.784a2.282,2.282,0,0,1,.5,1.142,11.028,11.028,0,0,1-1.448,2.887l-1.637,2.659V26.994a4.306,4.306,0,0,1,.735-2.763H98.591a3.3,3.3,0,0,1,.734,2.2v9.7a4.3,4.3,0,0,1-.734,2.763h4.469a3.368,3.368,0,0,1-.735-2.244V34.43a1.7,1.7,0,0,0,1.407.706,1.735,1.735,0,0,0,1.226-.456,1.539,1.539,0,0,0,.494-1.184,1.649,1.649,0,0,0-.294-0.977,1.083,1.083,0,0,0-.9-0.477,0.9,0.9,0,0,0-.9.5,0.635,0.635,0,0,1-.147-0.395,5.637,5.637,0,0,1,1.364-2.139q0.8,1.848,1.6,3.7A14.821,14.821,0,0,1,107.4,37.92a2.533,2.533,0,0,1-.23.977h4.8Q111.432,38.813,109.249,33.537Zm-90.026,0q-1.364-3.323-2.5-6.44a8.165,8.165,0,0,1,2.937-2.866H14.879a2.283,2.283,0,0,1,.5,1.142,11.025,11.025,0,0,1-1.448,2.887L12.3,30.92V26.994a4.308,4.308,0,0,1,.734-2.763H8.564a3.3,3.3,0,0,1,.734,2.2v9.7A4.3,4.3,0,0,1,8.564,38.9h4.468a3.369,3.369,0,0,1-.734-2.244V34.43a1.7,1.7,0,0,0,1.406.706,1.736,1.736,0,0,0,1.227-.456,1.541,1.541,0,0,0,.494-1.184,1.653,1.653,0,0,0-.294-0.977,1.085,1.085,0,0,0-.9-0.477,0.9,0.9,0,0,0-.9.5,0.631,0.631,0,0,1-.147-0.395,5.628,5.628,0,0,1,1.364-2.139q0.8,1.848,1.6,3.7a14.859,14.859,0,0,1,1.238,4.217,2.521,2.521,0,0,1-.231.977h4.8Q21.4,38.813,19.223,33.537Zm104.65-9.306h-3.8l-4.364,7.125V26.433a3.3,3.3,0,0,1,.734-2.2H112.06a4.249,4.249,0,0,1,.714,2.659v9.825a3.385,3.385,0,0,1-.714,2.182h3.756a0.878,0.878,0,0,1-.105-0.436V36.715l4.448-7v6.418a4.133,4.133,0,0,1-.777,2.763h4.491a4.147,4.147,0,0,1-.735-2.68V26.37A3.207,3.207,0,0,1,123.873,24.231Zm-91.286.125a6.752,6.752,0,0,0-2.224-.229H27.929q-1.2,3.1-1.405,3.677a12.989,12.989,0,0,0-.86,3.7,2.09,2.09,0,0,0,.514,1.434,1.718,1.718,0,0,0,1.354.581,2.051,2.051,0,0,0,1.3-.425,1.384,1.384,0,0,0,.545-1.153,1.508,1.508,0,0,0-.388-1.038,1.269,1.269,0,0,0-1-.437,1.145,1.145,0,0,0-1.133.665,1.306,1.306,0,0,1-.189-0.644,12.2,12.2,0,0,1,.944-3.719h1.595a2.252,2.252,0,0,1,1.07.146,0.984,0.984,0,0,1,.293.54,37.826,37.826,0,0,1,.357,6.959,1.791,1.791,0,0,1-.461,1.413,1.968,1.968,0,0,1-1.2.29q-0.21,0-.671-0.02t-0.735-.021a5.75,5.75,0,0,1-2.412-.27,1.661,1.661,0,0,1-.357-1.308q0-7.042.566-7.54a0.957,0.957,0,0,1,.651-0.187h0.21l0.755-2.638a4.078,4.078,0,0,1-1.049.042l-1.049-.042q-1.867,0-2.318.728t-0.66,5.13q-0.168,3.033-.168,5.65a7.844,7.844,0,0,0,.126,1.641,1.936,1.936,0,0,0,.912,1.319q0.7,0.405,4.1.4,2.706,0,3.231-.021a5.565,5.565,0,0,0,2.916-.623,3.772,3.772,0,0,0,.713-2.721q0-8.682-.713-10.49A1.328,1.328,0,0,0,32.587,24.356Zm8.56-.031q-1.574-.073-2.371-0.073a8.07,8.07,0,0,0-1.783.145,2.1,2.1,0,0,0-1.384,1q-0.525.956-.524,7.063v1.5q0.021,1.016.021,1.516,0,2.265.923,2.95a6.025,6.025,0,0,0,3.21.561q0.777,0,2.35-.041t2.35-.042q0.168,0,.5.031c0.224,0.021.384,0.031,0.483,0.031V34.7a2.159,2.159,0,0,1-1.2,1.309,4.879,4.879,0,0,1-1.8.25,8.355,8.355,0,0,1-3.326-.353,1.623,1.623,0,0,1-.493-1.392l0.063-4.84a4.958,4.958,0,0,1,.314-1.932,1.681,1.681,0,0,1,1.637-.893h1.468a2.238,2.238,0,0,1,1.93.747,3.873,3.873,0,0,1,.44,2.119,3.623,3.623,0,0,1-.294,1.516,1.254,1.254,0,0,1-1.154.852,0.681,0.681,0,0,1-.546-0.249,1.176,1.176,0,0,0,.588-1.08,1.13,1.13,0,0,0-.41-0.894,1.444,1.444,0,0,0-.976-0.353,1.422,1.422,0,0,0-1.091.426,1.558,1.558,0,0,0-.4,1.111,1.659,1.659,0,0,0,.6,1.36,2.264,2.264,0,0,0,1.48.489q3.251,0,3.252-5.505V24.334c-0.616.043-1.112,0.063-1.49,0.063Q42.72,24.4,41.146,24.325Zm30,11.768a3.528,3.528,0,0,1-1.364.186H65.5V33.994a2.411,2.411,0,0,1,.818-1.89,2.924,2.924,0,0,1,2.014-.727,1.809,1.809,0,0,1,1.133.353,1.183,1.183,0,0,1,.462,1,0.812,0.812,0,0,1-.735,1,1.468,1.468,0,0,0,.147-0.582,0.948,0.948,0,0,0-.314-0.727,1.1,1.1,0,0,0-.777-0.291,0.968,0.968,0,0,0-1.111,1.08,1.082,1.082,0,0,0,.419.894,1.539,1.539,0,0,0,.986.332,1.941,1.941,0,0,0,1.564-.716,2.534,2.534,0,0,0,.6-1.672,2.5,2.5,0,0,0-.8-1.911,2.771,2.771,0,0,0-1.972-.748,4.207,4.207,0,0,0-2.434.748V26.952h3.8a3.083,3.083,0,0,1,1.3.207,2.5,2.5,0,0,1,.881.955V24.231H61.833a3.3,3.3,0,0,1,.734,2.2v9.7a4.3,4.3,0,0,1-.734,2.763H72.009V35.034A2.165,2.165,0,0,1,71.149,36.093Zm6.44-11.82q-1.951,0-4.238-.1v4.882a4.943,4.943,0,0,0,.147,1.434,1.061,1.061,0,0,0,1.091.747,1.229,1.229,0,0,0,.933-0.363,1.316,1.316,0,0,0,.346-0.946A0.988,0.988,0,0,0,74.8,28.76a0.911,0.911,0,0,0-.818.414,1.792,1.792,0,0,1-.063-0.436,2.608,2.608,0,0,1,.44-1.745,2.334,2.334,0,0,1,1.721-.478h1.154v9.722a4.081,4.081,0,0,1-.756,2.659h4.49a4.081,4.081,0,0,1-.756-2.659V26.516c0.042,0,.119-0.007.231-0.021h0.231a4.836,4.836,0,0,1,2.139.291,2.142,2.142,0,0,1,.693,1.953,3.04,3.04,0,0,1-.041.436,0.947,0.947,0,0,0-.819-0.414,1.009,1.009,0,0,0-.8.332,1.208,1.208,0,0,0-.294.831,1.135,1.135,0,0,0,1.258,1.309,1.087,1.087,0,0,0,1.092-.664,3.939,3.939,0,0,0,.167-1.351V24.169q-2.329.1-4.384,0.1h-2.1Zm19.2-.041h-3.8l-4.364,7.125V26.433a3.3,3.3,0,0,1,.734-2.2H84.974a4.25,4.25,0,0,1,.713,2.659v9.825a3.385,3.385,0,0,1-.713,2.182h3.755a0.878,0.878,0,0,1-.1-0.436V36.715l4.448-7v6.418A4.136,4.136,0,0,1,92.3,38.9h4.49a4.149,4.149,0,0,1-.735-2.68V26.37A3.208,3.208,0,0,1,96.787,24.231ZM59.274,33.579q-0.483-5.442-.483-6.792a4.342,4.342,0,0,1,.819-2.555H55.959a24.361,24.361,0,0,1-1.28,2.7l-1.427,2.617-2.287-5.318H46.9A2.772,2.772,0,0,1,47.9,26.287q0,0.582-.147,2.181l-0.567,5.879q-0.357,3.615-1.28,4.549h4.343a3.4,3.4,0,0,1-.587-2.014c0-.306.014-0.651,0.042-1.039l0.44-6.294,1.637,3.406a6.285,6.285,0,0,0-.4,1.87,2.283,2.283,0,0,0,.609,1.651,2.136,2.136,0,0,0,1.615.634,1.993,1.993,0,0,0,1.343-.468,1.549,1.549,0,0,0,.545-1.236,1.683,1.683,0,0,0-.378-1.091,1.207,1.207,0,0,0-.986-0.467,1.053,1.053,0,0,0-1.154,1.225,0.9,0.9,0,0,1-.335-0.664q0-2.182,3.293-5.318l0.63,6.149q0.105,1,.105,1.537a3.9,3.9,0,0,1-.63,2.119h4.448a4.784,4.784,0,0,1-.9-2.513Q59.441,35.489,59.274,33.579Z"/>
</svg>
