<svg xmlns="http://www.w3.org/2000/svg" width="150" height="50" viewBox="0 0 150 50">
<defs>
    <style>
      .cls-1 {
        fill: #081828;
      }

      .cls-1, .cls-2 {
        fill-rule: evenodd;
      }

      .cls-2 {
        fill: #20c1d5;
      }
    </style>
  </defs>
  <path class="cls-1" d="M66.236,41.071L66.956,43.2h0.929l-2.3-6.78H64.538L62.25,43.2h0.9l0.7-2.133h2.388Zm-2.208-.684,0.659-1.961c0.13-.412.24-0.825,0.34-1.227h0.02c0.1,0.392.2,0.795,0.35,1.237l0.659,1.951H64.028ZM74.873,43.2h0.869V40.487a2.973,2.973,0,0,0,.7.06A2.78,2.78,0,0,0,78.5,39.8a2,2,0,0,0,.519-1.448,1.828,1.828,0,0,0-.589-1.418,2.754,2.754,0,0,0-1.888-.563,10.011,10.011,0,0,0-1.669.131v6.7Zm0.869-6.065a3.628,3.628,0,0,1,.819-0.07A1.339,1.339,0,0,1,78.15,38.4a1.442,1.442,0,0,1-1.689,1.448,2.9,2.9,0,0,1-.719-0.07V37.138ZM86.187,43.2h0.869V40.487a2.972,2.972,0,0,0,.7.06,2.779,2.779,0,0,0,2.058-.744,2,2,0,0,0,.52-1.448,1.828,1.828,0,0,0-.59-1.418,2.754,2.754,0,0,0-1.888-.563,10.012,10.012,0,0,0-1.669.131v6.7Zm0.869-6.065a3.626,3.626,0,0,1,.819-0.07A1.339,1.339,0,0,1,89.465,38.4a1.442,1.442,0,0,1-1.689,1.448,2.9,2.9,0,0,1-.719-0.07V37.138ZM97.5,43.2h0.869V40.266H99.19a1.312,1.312,0,0,1,1.349,1.318,8.821,8.821,0,0,0,.45,1.62h0.9a10.839,10.839,0,0,1-.52-1.861,1.688,1.688,0,0,0-.989-1.368v-0.03a1.778,1.778,0,0,0,1.269-1.73,1.693,1.693,0,0,0-.53-1.288,2.74,2.74,0,0,0-1.948-.553,9,9,0,0,0-1.669.141V43.2Zm0.869-6.075a3.549,3.549,0,0,1,.859-0.081,1.3,1.3,0,0,1,1.549,1.267A1.328,1.328,0,0,1,99.26,39.6H98.371V37.128Zm13.262-.815c-1.8,0-3.127,1.408-3.127,3.561,0,2.052,1.249,3.44,3.027,3.44,1.719,0,3.128-1.237,3.128-3.571C114.661,37.731,113.472,36.313,111.633,36.313Zm-0.04.714c1.449,0,2.149,1.408,2.149,2.756,0,1.539-.78,2.817-2.159,2.817s-2.148-1.3-2.148-2.746C109.435,38.365,110.155,37.027,111.593,37.027ZM124.227,43.2l2.408-6.78h-0.929l-1.139,3.35c-0.3.885-.58,1.74-0.77,2.525h-0.02c-0.179-.795-0.429-1.62-0.719-2.535l-1.049-3.34H121.07l2.2,6.78h0.959Zm12.623-3.9h-2.618V37.158H137V36.424h-3.637V43.2h3.787V42.469h-2.918V40.025h2.618V39.3Zm7.428,3.883a13.921,13.921,0,0,0,1.578.081,4.133,4.133,0,0,0,2.978-.976,3.6,3.6,0,0,0,.969-2.635,3.135,3.135,0,0,0-.949-2.434,3.841,3.841,0,0,0-2.728-.845,12.358,12.358,0,0,0-1.848.141v6.669Zm0.869-6.025a4.9,4.9,0,0,1,1.019-.091,2.41,2.41,0,0,1,2.728,2.615,2.6,2.6,0,0,1-2.868,2.877,5.441,5.441,0,0,1-.879-0.05V37.158Z"/>
  <path class="cls-1" d="M146.43,14.019a7.458,7.458,0,0,0-4.927-1.855,7.568,7.568,0,0,0,0,15.135,7.46,7.46,0,0,0,5.011-1.929L150,29.292a12.647,12.647,0,0,1-8.5,3.27,12.832,12.832,0,0,1,0-25.663,12.645,12.645,0,0,1,8.355,3.146ZM103.265,32.233V6.9h19.609v5.593H109.148V17.1h12.419v4.935H109.148V26.64h13.726v5.593H103.265Zm-14.707,0H82.675V12.492H74.5V6.9H97.055v5.593h-8.5V32.233ZM62.086,14.466h5.883V31.9H62.086V14.466Z"/>
  <path class="cls-2" d="M62.086,6.9h5.883v5.593H62.086V6.9Z"/>
  <path class="cls-2" d="M42.391,7.314a1.653,1.653,0,0,1,0,2.326l-6.724,6.769a42.628,42.628,0,0,1,5.018,6.581l5.4-5.44a1.631,1.631,0,0,1,2.785,1.207,25.1,25.1,0,0,1-6.3,23.732c-0.022.023-.042,0.048-0.064,0.071l-0.033.03-0.083.087a24.721,24.721,0,0,1-35.127,0,1.653,1.653,0,0,1,0-2.327l6.954-7A42.673,42.673,0,0,1,9.2,26.77L4.5,31.5l0.01,0.034-0.047,0L3.8,32.207a1.615,1.615,0,0,1-2.626-.46l-0.254.016A25.108,25.108,0,0,1,7.265,7.314c0.025-.025.052-0.048,0.077-0.074S7.367,7.211,7.38,7.2c0.045-.046.1-0.085,0.141-0.13A24.71,24.71,0,0,1,42,6.939l-0.036.073A1.617,1.617,0,0,1,42.391,7.314Zm-9.27,11.659L19.077,33.111a41.191,41.191,0,0,0,6.564,5.024L38.112,25.581A41.425,41.425,0,0,0,33.121,18.973Zm-2.3-2.335A41.665,41.665,0,0,0,24.3,11.566L11.72,24.232a41.874,41.874,0,0,0,5.038,6.56Zm15.257,5.578-3.737,3.762a26.256,26.256,0,0,1,2.34,6.86A21.752,21.752,0,0,0,46.076,22.217ZM39.965,40c2.247-2.262,1.985-6.55-.242-11.389L28.652,39.758C33.459,42,37.718,42.263,39.965,40ZM16.531,35.675l-5.514,5.551a21.307,21.307,0,0,0,21.836,3.521C27.777,43.831,21.853,40.665,16.531,35.675ZM3.63,27.724L7.547,23.78a25.627,25.627,0,0,1-2.433-7.425A21.752,21.752,0,0,0,3.63,27.724Zm6.062-18.2c-2.3,2.311-1.974,6.738.389,11.706L21.319,9.915C16.384,7.537,11.987,7.213,9.691,9.524Zm6.791-4.607C21.677,5.7,27.841,8.91,33.357,14.082l5.531-5.568A21.3,21.3,0,0,0,16.483,4.917Z"/>
</svg>
