<svg xmlns="http://www.w3.org/2000/svg" width="110" height="52" viewBox="0 0 110 52">
  <defs>
    <style>
      .cls-1 {
        fill: #f61067;
      }

      .cls-1, .cls-2 {
        fill-rule: evenodd;
      }

      .cls-2 {
        fill: #931947;
      }
    </style>
  </defs>
  <path class="cls-1" d="M4,40a4.011,4.011,0,0,1-3-6.667L8,22.857a3.924,3.924,0,0,0,0-5.714L1,6.667A3.823,3.823,0,0,1,0,3.81,3.81,3.81,0,0,1,4,0h98c4.6,0,8,3.237,8,7.619V40H4Zm100,0h6v6h-6V40Z"/>
  <path class="cls-2" d="M104,46V39.989c3.552,0.639,6,2.964,6,5.959V46h-6Zm0,0v6.011c3.552-.638,6-2.964,6-5.958V46h-6Z"/>
</svg>
