<?xml version="1.0" encoding="UTF-8"?>
<svg xmlns="http://www.w3.org/2000/svg" xmlns:xlink="http://www.w3.org/1999/xlink" width="101pt" height="29pt" viewBox="0 0 101 29" version="1.1">
<symbol id="sber_logo" viewBox="0 0 100 35">
<g id="surface1">
<path style=" stroke:none;fill-rule:nonzero;fill:rgb(23.921569%,23.529412%,30.980392%);fill-opacity:1;" d="M 0.117188 28.957031 C -0.0664062 28.957031 0.03125 28.828125 0.0351562 28.761719 C 0.167969 27.105469 0.304688 25.453125 0.445312 23.800781 C 0.644531 21.425781 0.839844 19.050781 1.039062 16.679688 C 1.273438 13.929688 1.507812 11.179688 1.742188 8.433594 C 1.835938 7.316406 1.929688 6.199219 2.003906 5.082031 C 2.019531 4.828125 2.097656 4.773438 2.339844 4.773438 C 9.644531 4.78125 16.949219 4.78125 24.25 4.773438 C 24.515625 4.773438 24.582031 4.84375 24.609375 5.105469 C 24.839844 7.988281 25.082031 10.867188 25.324219 13.75 C 25.457031 15.292969 25.574219 16.835938 25.710938 18.375 C 25.726562 18.585938 25.671875 18.675781 25.472656 18.753906 C 22.660156 19.875 19.851562 21.003906 17.046875 22.132812 C 16.78125 22.15625 16.804688 21.941406 16.820312 21.796875 C 16.878906 21.371094 16.828125 20.941406 16.886719 20.519531 C 16.957031 20.003906 16.941406 19.484375 16.972656 18.96875 C 17.011719 18.390625 17.050781 17.8125 17.058594 17.230469 C 17.078125 16.164062 17.183594 15.101562 17.21875 14.035156 C 17.238281 13.460938 17.3125 12.886719 17.292969 12.3125 C 17.175781 12.296875 17.136719 12.363281 17.089844 12.414062 C 16.285156 13.226562 15.445312 14.007812 14.628906 14.816406 C 12.292969 17.113281 9.9375 19.390625 7.605469 21.691406 C 6.320312 22.960938 5.019531 24.214844 3.726562 25.472656 C 2.578125 26.589844 1.421875 27.699219 0.285156 28.828125 C 0.230469 28.871094 0.175781 28.914062 0.117188 28.957031 Z M 0.117188 28.957031 "/>
<path style=" stroke:none;fill-rule:nonzero;fill:rgb(0.392157%,75.294118%,35.686275%);fill-opacity:1;" d="M 0.117188 28.957031 C 0.25 28.644531 0.535156 28.460938 0.761719 28.238281 C 2.257812 26.761719 3.765625 25.300781 5.273438 23.832031 C 6.625 22.503906 7.980469 21.175781 9.339844 19.855469 C 10.816406 18.421875 12.292969 16.988281 13.769531 15.550781 C 14.164062 15.167969 14.550781 14.78125 14.941406 14.398438 C 15.664062 13.6875 16.390625 12.980469 17.117188 12.269531 C 17.175781 12.214844 17.238281 12.167969 17.34375 12.078125 C 17.382812 12.355469 17.390625 12.632812 17.359375 12.914062 C 17.332031 13.480469 17.285156 14.046875 17.257812 14.617188 C 17.167969 16.476562 17.105469 18.335938 16.992188 20.191406 C 16.960938 20.707031 16.992188 21.226562 16.902344 21.742188 C 16.875 21.878906 16.839844 22.058594 17.046875 22.128906 C 17.347656 22.550781 17.757812 22.863281 18.132812 23.21875 C 20.050781 25.058594 21.972656 26.894531 23.902344 28.726562 C 23.957031 28.777344 24.03125 28.824219 24.050781 28.917969 C 23.964844 29.019531 23.84375 28.972656 23.742188 28.972656 C 15.976562 28.972656 8.210938 28.972656 0.445312 28.972656 C 0.335938 28.976562 0.222656 28.960938 0.117188 28.957031 Z M 0.117188 28.957031 "/>
<path style=" stroke:none;fill-rule:nonzero;fill:rgb(23.921569%,23.529412%,30.980392%);fill-opacity:1;" d="M 43.675781 12.355469 C 43.675781 14.160156 43.675781 15.960938 43.675781 17.765625 C 43.675781 17.984375 43.632812 18.074219 43.394531 18.054688 C 43.070312 18.03125 42.746094 18.03125 42.421875 18.054688 C 42.132812 18.082031 42.050781 17.996094 42.050781 17.699219 C 42.0625 14.625 42.0625 11.550781 42.058594 8.472656 C 42.058594 7.996094 42.117188 8.058594 41.632812 8.058594 C 39.980469 8.058594 38.332031 8.058594 36.679688 8.050781 C 36.382812 8.050781 36.316406 8.144531 36.316406 8.429688 C 36.328125 11.53125 36.316406 14.640625 36.328125 17.746094 C 36.328125 18 36.269531 18.078125 36.015625 18.0625 C 35.652344 18.039062 35.285156 18.050781 34.921875 18.0625 C 34.765625 18.0625 34.699219 18.003906 34.707031 17.847656 C 34.707031 17.789062 34.707031 17.730469 34.707031 17.667969 C 34.707031 14.121094 34.707031 10.578125 34.699219 7.035156 C 34.699219 6.730469 34.769531 6.640625 35.085938 6.640625 C 37.839844 6.65625 40.59375 6.65625 43.347656 6.640625 C 43.628906 6.640625 43.679688 6.726562 43.675781 6.988281 C 43.675781 8.773438 43.675781 10.5625 43.675781 12.355469 Z M 43.675781 12.355469 "/>
<path style=" stroke:none;fill-rule:nonzero;fill:rgb(23.921569%,23.529412%,30.980392%);fill-opacity:1;" d="M 95.183594 15.84375 C 96.464844 14.042969 97.730469 12.292969 98.949219 10.503906 C 99.265625 10.042969 99.585938 9.785156 100.148438 9.886719 C 100.394531 9.929688 100.726562 9.785156 100.882812 9.9375 C 101.035156 10.089844 100.9375 10.4375 100.9375 10.695312 C 100.9375 13.039062 100.9375 15.378906 100.945312 17.722656 C 100.945312 17.960938 100.898438 18.070312 100.632812 18.050781 C 100.320312 18.027344 100.007812 18.027344 99.691406 18.050781 C 99.476562 18.0625 99.390625 18.007812 99.394531 17.765625 C 99.425781 15.976562 99.351562 14.1875 99.4375 12.394531 C 99.4375 12.335938 99.4375 12.277344 99.4375 12.164062 C 98.886719 12.941406 98.371094 13.675781 97.851562 14.40625 C 97.019531 15.570312 96.179688 16.730469 95.351562 17.898438 C 95.261719 18.046875 95.097656 18.132812 94.925781 18.113281 C 94.601562 18.097656 94.277344 18.101562 93.953125 18.113281 C 93.773438 18.113281 93.703125 18.066406 93.703125 17.875 C 93.710938 15.289062 93.710938 12.703125 93.703125 10.117188 C 93.703125 9.945312 93.753906 9.886719 93.929688 9.894531 C 94.261719 9.90625 94.597656 9.90625 94.929688 9.894531 C 95.125 9.882812 95.191406 9.9375 95.1875 10.144531 C 95.164062 11.996094 95.21875 13.847656 95.15625 15.703125 C 95.164062 15.75 95.171875 15.796875 95.183594 15.84375 Z M 95.183594 15.84375 "/>
<path style=" stroke:none;fill-rule:nonzero;fill:rgb(23.921569%,23.529412%,30.980392%);fill-opacity:1;" d="M 69 16.222656 C 69.695312 14.1875 70.460938 12.25 71.15625 10.289062 C 71.257812 10.007812 71.394531 9.910156 71.675781 9.929688 C 72.019531 9.953125 72.363281 9.953125 72.707031 9.929688 C 72.960938 9.917969 72.96875 9.996094 72.882812 10.203125 C 72.289062 11.671875 71.703125 13.144531 71.117188 14.617188 C 70.46875 16.25 69.816406 17.882812 69.167969 19.519531 C 68.875 20.265625 68.425781 20.882812 67.683594 21.214844 C 66.859375 21.605469 65.898438 21.554688 65.117188 21.085938 C 64.992188 21.015625 64.941406 20.945312 65.011719 20.796875 C 65.148438 20.511719 65.277344 20.226562 65.394531 19.933594 C 65.457031 19.792969 65.515625 19.78125 65.644531 19.855469 C 66.679688 20.484375 67.464844 19.925781 67.882812 19.082031 C 68.398438 18.042969 68.394531 18.046875 67.949219 17 C 66.976562 14.71875 66.015625 12.433594 65.042969 10.152344 C 64.960938 9.960938 64.964844 9.878906 65.207031 9.886719 C 65.621094 9.902344 66.039062 9.894531 66.453125 9.886719 C 66.585938 9.867188 66.710938 9.949219 66.746094 10.078125 C 67.429688 11.917969 68.121094 13.75 68.808594 15.589844 C 68.878906 15.777344 68.925781 15.976562 69 16.222656 Z M 69 16.222656 "/>
<path style=" stroke:none;fill-rule:nonzero;fill:rgb(23.921569%,23.529412%,30.588235%);fill-opacity:1;" d="M 74.882812 13.972656 C 74.882812 12.699219 74.882812 11.425781 74.882812 10.15625 C 74.882812 9.9375 74.941406 9.882812 75.152344 9.886719 C 77.359375 9.890625 79.570312 9.890625 81.777344 9.886719 C 81.996094 9.886719 82.046875 9.953125 82.046875 10.160156 C 82.039062 12.707031 82.039062 15.253906 82.046875 17.796875 C 82.046875 18.015625 81.984375 18.082031 81.769531 18.070312 C 81.445312 18.050781 81.121094 18.050781 80.796875 18.070312 C 80.542969 18.089844 80.457031 18.027344 80.460938 17.742188 C 80.472656 15.664062 80.460938 13.585938 80.472656 11.507812 C 80.472656 11.269531 80.421875 11.199219 80.175781 11.203125 C 79.042969 11.214844 77.910156 11.214844 76.773438 11.203125 C 76.519531 11.203125 76.453125 11.261719 76.453125 11.519531 C 76.464844 13.59375 76.453125 15.671875 76.464844 17.75 C 76.464844 18 76.40625 18.089844 76.148438 18.070312 C 75.824219 18.046875 75.5 18.046875 75.175781 18.070312 C 74.921875 18.089844 74.878906 17.992188 74.882812 17.761719 C 74.890625 16.5 74.882812 15.238281 74.882812 13.972656 Z M 74.882812 13.972656 "/>
<path style=" stroke:none;fill-rule:nonzero;fill:rgb(23.921569%,23.529412%,30.980392%);fill-opacity:1;" d="M 63.863281 9.921875 C 63.695312 10.167969 63.5625 10.367188 63.421875 10.5625 C 62.710938 11.578125 62.007812 12.59375 61.289062 13.609375 C 61.152344 13.796875 61.160156 13.914062 61.300781 14.105469 C 62.222656 15.359375 63.125 16.625 64.03125 17.882812 C 64.070312 17.9375 64.105469 17.996094 64.171875 18.097656 C 63.5625 18.097656 63 18.097656 62.4375 18.097656 C 62.296875 18.097656 62.257812 17.984375 62.199219 17.898438 C 61.488281 16.863281 60.765625 15.828125 60.054688 14.785156 C 59.976562 14.628906 59.808594 14.542969 59.636719 14.5625 C 59.355469 14.59375 58.992188 14.445312 58.816406 14.621094 C 58.636719 14.796875 58.761719 15.160156 58.757812 15.441406 C 58.75 16.246094 58.75 17.050781 58.757812 17.855469 C 58.757812 18.039062 58.714844 18.109375 58.523438 18.101562 C 58.148438 18.089844 57.773438 18.089844 57.398438 18.101562 C 57.21875 18.109375 57.179688 18.039062 57.179688 17.875 C 57.183594 15.285156 57.183594 12.699219 57.179688 10.117188 C 57.179688 9.945312 57.222656 9.878906 57.398438 9.890625 C 57.753906 9.902344 58.109375 9.90625 58.46875 9.890625 C 58.675781 9.878906 58.71875 9.957031 58.71875 10.148438 C 58.707031 11.074219 58.71875 12.003906 58.707031 12.929688 C 58.707031 13.15625 58.769531 13.191406 58.988281 13.222656 C 59.636719 13.3125 60.039062 13.078125 60.371094 12.503906 C 60.847656 11.679688 61.433594 10.917969 61.964844 10.117188 C 62.039062 9.984375 62.179688 9.90625 62.332031 9.917969 C 62.816406 9.929688 63.300781 9.921875 63.863281 9.921875 Z M 63.863281 9.921875 "/>
<path style=" stroke:none;fill-rule:nonzero;fill:rgb(23.921569%,23.529412%,30.588235%);fill-opacity:1;" d="M 15.171875 0.671875 C 16.085938 1.308594 16.761719 2.105469 17.03125 3.199219 C 17.066406 3.339844 17.082031 3.480469 17.105469 3.621094 C 17.164062 4.011719 16.984375 4.152344 16.613281 4.03125 C 16.503906 3.996094 16.519531 3.921875 16.507812 3.84375 C 16.339844 2.410156 15.519531 1.507812 14.242188 0.953125 C 14.039062 0.859375 13.804688 0.859375 13.601562 0.953125 C 12.488281 1.433594 11.675781 2.175781 11.394531 3.398438 C 11.363281 3.527344 11.34375 3.660156 11.34375 3.792969 C 11.34375 3.972656 11.28125 4.039062 11.09375 4.039062 C 10.691406 4.039062 10.660156 4.011719 10.722656 3.582031 C 10.886719 2.386719 11.511719 1.492188 12.484375 0.820312 C 12.546875 0.777344 12.632812 0.765625 12.679688 0.652344 C 12.355469 0.632812 12.035156 0.660156 11.71875 0.734375 C 10.367188 1.050781 9.375 1.789062 8.894531 3.144531 C 8.816406 3.355469 8.773438 3.578125 8.773438 3.800781 C 8.773438 4.171875 8.503906 4.007812 8.335938 4.03125 C 8.101562 4.066406 8.136719 3.890625 8.152344 3.753906 C 8.324219 2.191406 9.191406 1.136719 10.5625 0.476562 C 11.53125 0.0078125 12.625 -0.117188 13.671875 0.121094 C 13.847656 0.160156 14.03125 0.160156 14.207031 0.121094 C 16.332031 -0.378906 18.71875 0.816406 19.480469 2.753906 C 19.609375 3.085938 19.691406 3.433594 19.726562 3.789062 C 19.738281 3.90625 19.765625 4.074219 19.574219 4.035156 C 19.402344 3.996094 19.109375 4.222656 19.074219 3.851562 C 18.960938 2.722656 18.390625 1.882812 17.464844 1.28125 C 16.785156 0.839844 15.980469 0.625 15.171875 0.671875 Z M 15.171875 0.671875 "/>
<path style=" stroke:none;fill-rule:nonzero;fill:rgb(23.921569%,23.529412%,30.980392%);fill-opacity:1;" d="M 95.523438 6.65625 C 95.582031 6.65625 95.640625 6.65625 95.703125 6.65625 C 95.992188 6.628906 96.179688 6.648438 96.179688 7.046875 C 96.183594 7.582031 96.730469 7.957031 97.328125 7.9375 C 97.902344 7.917969 98.382812 7.511719 98.394531 6.980469 C 98.402344 6.699219 98.492188 6.628906 98.753906 6.65625 C 98.941406 6.679688 99.136719 6.679688 99.328125 6.65625 C 99.648438 6.613281 99.695312 6.765625 99.667969 7.042969 C 99.570312 7.9375 99.082031 8.523438 98.257812 8.808594 C 97.429688 9.097656 96.585938 9.046875 95.8125 8.570312 C 95.175781 8.179688 94.925781 7.574219 94.902344 6.847656 C 94.902344 6.691406 94.964844 6.652344 95.101562 6.660156 C 95.238281 6.664062 95.378906 6.660156 95.523438 6.65625 Z M 95.523438 6.65625 "/>
<path style=" stroke:none;fill-rule:nonzero;fill:rgb(0.392157%,75.294118%,35.686275%);fill-opacity:1;" d="M 82.617188 24.226562 C 82.347656 24.789062 82.082031 25.316406 81.839844 25.851562 C 81.773438 26.035156 81.589844 26.148438 81.394531 26.125 C 81.179688 26.125 81.101562 26.011719 81.023438 25.84375 C 80.765625 25.292969 80.496094 24.746094 80.191406 24.121094 C 80.160156 24.664062 80.132812 25.121094 80.105469 25.582031 C 80.09375 25.820312 80.054688 26.046875 80.0625 26.28125 C 80.078125 26.640625 79.828125 26.519531 79.644531 26.535156 C 79.386719 26.5625 79.4375 26.375 79.449219 26.230469 C 79.53125 25.339844 79.609375 24.445312 79.6875 23.554688 C 79.699219 23.4375 79.65625 23.242188 79.859375 23.265625 C 80.0625 23.289062 80.355469 23.113281 80.496094 23.441406 C 80.789062 24.109375 81.089844 24.777344 81.386719 25.46875 C 81.457031 25.402344 81.511719 25.3125 81.535156 25.21875 C 81.808594 24.621094 82.085938 24.035156 82.351562 23.445312 C 82.496094 23.125 82.773438 23.289062 82.988281 23.269531 C 83.207031 23.25 83.148438 23.460938 83.160156 23.582031 C 83.242188 24.472656 83.320312 25.367188 83.398438 26.257812 C 83.410156 26.402344 83.460938 26.566406 83.222656 26.539062 C 83.046875 26.519531 82.796875 26.652344 82.78125 26.300781 C 82.757812 25.703125 82.714844 25.101562 82.679688 24.503906 C 82.695312 24.40625 82.671875 24.308594 82.617188 24.226562 Z M 82.617188 24.226562 "/>
<path style=" stroke:none;fill-rule:nonzero;fill:rgb(0.392157%,75.294118%,35.686275%);fill-opacity:1;" d="M 46.40625 21.886719 C 46.863281 21.902344 47.3125 22.046875 47.695312 22.296875 C 47.90625 22.441406 47.835938 22.566406 47.730469 22.726562 C 47.621094 22.886719 47.558594 22.949219 47.355469 22.816406 C 46.582031 22.316406 45.617188 22.371094 45.074219 22.902344 C 44.421875 23.542969 44.371094 24.734375 44.96875 25.433594 C 45.519531 26.089844 46.636719 26.171875 47.402344 25.609375 C 47.535156 25.511719 47.628906 25.386719 47.792969 25.601562 C 47.957031 25.8125 47.949219 25.917969 47.738281 26.089844 C 46.996094 26.683594 45.699219 26.742188 44.851562 26.183594 C 44.046875 25.652344 43.6875 24.496094 44.007812 23.460938 C 44.3125 22.492188 45.207031 21.871094 46.40625 21.886719 Z M 46.40625 21.886719 "/>
<path style=" stroke:none;fill-rule:nonzero;fill:rgb(0.392157%,75.294118%,35.686275%);fill-opacity:1;" d="M 67.949219 24.898438 C 67.949219 24.4375 67.96875 23.980469 67.941406 23.523438 C 67.921875 23.222656 68.097656 23.261719 68.28125 23.246094 C 68.5 23.230469 68.59375 23.300781 68.574219 23.535156 C 68.554688 23.808594 68.574219 24.085938 68.574219 24.359375 C 68.574219 24.515625 68.636719 24.582031 68.789062 24.582031 C 69.195312 24.582031 69.597656 24.574219 70.003906 24.582031 C 70.1875 24.582031 70.222656 24.492188 70.222656 24.335938 C 70.222656 24.050781 70.234375 23.765625 70.222656 23.480469 C 70.210938 23.195312 70.417969 23.261719 70.578125 23.25 C 70.734375 23.238281 70.871094 23.242188 70.871094 23.476562 C 70.859375 24.414062 70.859375 25.351562 70.871094 26.289062 C 70.871094 26.566406 70.699219 26.527344 70.527344 26.53125 C 70.351562 26.539062 70.210938 26.515625 70.226562 26.273438 C 70.246094 25.980469 70.226562 25.683594 70.226562 25.390625 C 70.234375 25.199219 70.179688 25.109375 69.96875 25.117188 C 69.597656 25.132812 69.222656 25.132812 68.847656 25.117188 C 68.625 25.109375 68.566406 25.199219 68.574219 25.40625 C 68.589844 25.699219 68.570312 26.003906 68.582031 26.289062 C 68.59375 26.511719 68.476562 26.546875 68.300781 26.53125 C 68.144531 26.511719 67.945312 26.597656 67.953125 26.300781 C 67.957031 25.832031 67.949219 25.363281 67.949219 24.898438 Z M 67.949219 24.898438 "/>
<path style=" stroke:none;fill-rule:nonzero;fill:rgb(0.392157%,75.294118%,35.686275%);fill-opacity:1;" d="M 74.640625 23.300781 C 74.347656 23.738281 74.066406 24.171875 73.769531 24.589844 C 73.640625 24.722656 73.644531 24.9375 73.773438 25.070312 C 74.074219 25.46875 74.351562 25.882812 74.640625 26.289062 C 74.746094 26.4375 74.769531 26.527344 74.527344 26.535156 C 74.226562 26.546875 73.988281 26.515625 73.824219 26.203125 C 73.65625 25.894531 73.417969 25.621094 73.21875 25.328125 C 73.148438 25.203125 73.015625 25.125 72.875 25.121094 C 72.695312 25.121094 72.613281 25.171875 72.617188 25.359375 C 72.628906 25.675781 72.617188 25.992188 72.628906 26.304688 C 72.640625 26.546875 72.484375 26.535156 72.332031 26.527344 C 72.175781 26.519531 71.992188 26.585938 71.996094 26.3125 C 71.996094 25.363281 72.003906 24.417969 71.996094 23.472656 C 71.996094 23.230469 72.136719 23.230469 72.292969 23.25 C 72.449219 23.269531 72.640625 23.179688 72.628906 23.460938 C 72.613281 23.726562 72.617188 23.992188 72.628906 24.257812 C 72.628906 24.363281 72.558594 24.527344 72.734375 24.5625 C 72.910156 24.601562 73.070312 24.605469 73.183594 24.417969 C 73.355469 24.140625 73.550781 23.878906 73.730469 23.609375 C 74 23.207031 74.09375 23.171875 74.640625 23.300781 Z M 74.640625 23.300781 "/>
<path style=" stroke:none;fill-rule:nonzero;fill:rgb(0.392157%,75.294118%,35.686275%);fill-opacity:1;" d="M 36.066406 26.613281 C 35.273438 26.613281 34.652344 26.164062 34.429688 25.445312 C 34.1875 24.738281 34.421875 23.953125 35.011719 23.496094 C 35.597656 23.058594 36.472656 23.066406 37.09375 23.496094 C 37.277344 23.621094 37.253906 23.71875 37.15625 23.890625 C 37.042969 24.089844 36.953125 24.070312 36.78125 23.964844 C 36.265625 23.644531 35.6875 23.683594 35.320312 24.046875 C 34.949219 24.441406 34.875 25.039062 35.140625 25.515625 C 35.472656 26.089844 36.265625 26.230469 36.875 25.832031 C 36.972656 25.769531 37.066406 25.542969 37.230469 25.792969 C 37.359375 25.992188 37.367188 26.125 37.15625 26.269531 C 36.839844 26.5 36.457031 26.621094 36.066406 26.613281 Z M 36.066406 26.613281 "/>
<path style=" stroke:none;fill-rule:nonzero;fill:rgb(23.921569%,23.529412%,30.980392%);fill-opacity:1;" d="M 50.246094 9.730469 C 47.710938 9.863281 45.925781 11.832031 46.089844 14.371094 C 46.246094 16.742188 48.25 18.484375 50.808594 18.292969 C 53.195312 18.117188 54.828125 16.222656 54.820312 13.996094 C 54.765625 11.246094 52.597656 9.609375 50.246094 9.730469 Z M 50.492188 16.890625 C 48.839844 16.898438 47.6875 15.664062 47.683594 13.878906 C 47.679688 12.328125 48.929688 11.066406 50.476562 11.0625 C 52.085938 11.0625 53.289062 12.308594 53.292969 13.980469 C 53.289062 15.609375 52.066406 16.890625 50.492188 16.894531 Z M 50.492188 16.890625 "/>
<path style=" stroke:none;fill-rule:nonzero;fill:rgb(23.921569%,23.529412%,30.980392%);fill-opacity:1;" d="M 91.03125 13.640625 C 91.039062 13.203125 91.027344 12.765625 90.984375 12.328125 C 90.84375 11.0625 90.089844 10.136719 88.921875 9.859375 C 87.523438 9.53125 86.214844 9.792969 84.976562 10.507812 C 84.777344 10.625 84.765625 10.726562 84.878906 10.910156 C 85.019531 11.132812 85.144531 11.367188 85.253906 11.609375 C 85.335938 11.800781 85.417969 11.8125 85.585938 11.703125 C 86.082031 11.382812 86.636719 11.171875 87.21875 11.078125 C 88.539062 10.859375 89.421875 11.546875 89.414062 12.792969 C 89.414062 12.949219 89.375 13.007812 89.214844 13.003906 C 88.929688 12.992188 88.644531 12.996094 88.363281 13.011719 C 87.253906 13.070312 86.164062 13.226562 85.207031 13.851562 C 83.828125 14.757812 83.808594 16.84375 85.179688 17.757812 C 86.472656 18.625 88.585938 18.480469 89.582031 16.625 C 89.582031 17.0625 89.601562 17.4375 89.582031 17.808594 C 89.570312 18.0625 89.664062 18.117188 89.894531 18.105469 C 90.1875 18.085938 90.480469 18.085938 90.773438 18.105469 C 90.996094 18.117188 91.039062 18.03125 91.039062 17.824219 C 91.03125 16.429688 91.03125 15.035156 91.03125 13.640625 Z M 89.414062 14.523438 C 89.390625 15.1875 89.144531 15.828125 88.714844 16.332031 C 88.148438 17.011719 87.125 17.222656 86.375 16.808594 C 85.984375 16.609375 85.730469 16.222656 85.703125 15.785156 C 85.675781 15.347656 85.878906 14.925781 86.238281 14.679688 C 86.679688 14.359375 87.1875 14.253906 87.714844 14.179688 C 88.148438 14.125 88.585938 14.101562 89.019531 14.113281 C 89.425781 14.121094 89.425781 14.117188 89.410156 14.523438 Z M 89.414062 14.523438 "/>
<path style=" stroke:none;fill-rule:nonzero;fill:rgb(0.392157%,75.294118%,35.686275%);fill-opacity:1;" d="M 59.492188 24.269531 C 59.246094 23.390625 58.464844 22.972656 57.660156 23.246094 C 57.4375 23.324219 57.289062 23.507812 57.078125 23.652344 C 57.066406 23.59375 57.0625 23.53125 57.058594 23.472656 C 57.070312 23.167969 56.84375 23.28125 56.695312 23.257812 C 56.527344 23.238281 56.46875 23.3125 56.46875 23.484375 C 56.46875 24.839844 56.480469 26.191406 56.46875 27.542969 C 56.46875 27.863281 56.660156 27.800781 56.847656 27.816406 C 57.0625 27.832031 57.152344 27.777344 57.144531 27.535156 C 57.125 27.089844 57.144531 26.648438 57.144531 26.160156 C 57.21875 26.210938 57.25 26.226562 57.277344 26.25 C 57.964844 26.789062 58.875 26.636719 59.320312 25.890625 C 59.605469 25.398438 59.667969 24.808594 59.492188 24.269531 Z M 58.851562 25.4375 C 58.722656 25.839844 58.335938 26.097656 57.917969 26.066406 C 57.507812 26.019531 57.183594 25.6875 57.117188 25.230469 C 57.101562 25.128906 57.105469 25.027344 57.101562 24.96875 C 57.109375 24.691406 57.117188 24.460938 57.234375 24.25 C 57.386719 23.929688 57.71875 23.734375 58.070312 23.761719 C 58.417969 23.761719 58.726562 23.980469 58.839844 24.308594 C 58.992188 24.671875 58.996094 25.074219 58.851562 25.4375 Z M 58.851562 25.4375 "/>
<path style=" stroke:none;fill-rule:nonzero;fill:rgb(0.392157%,75.294118%,35.686275%);fill-opacity:1;" d="M 62.6875 23.667969 C 62.070312 23.410156 61.5 23.523438 60.976562 24.007812 C 61.023438 23.480469 61.273438 23.152344 61.808594 22.894531 C 62.183594 22.714844 62.5625 22.546875 62.949219 22.394531 C 63.171875 22.304688 63.113281 22.175781 63.050781 22.011719 C 62.988281 21.847656 62.898438 21.808594 62.730469 21.890625 C 62.335938 22.078125 61.933594 22.238281 61.539062 22.421875 C 61.25 22.546875 60.992188 22.742188 60.800781 22.992188 C 60.269531 23.722656 60.207031 24.546875 60.40625 25.378906 C 60.605469 26.214844 61.238281 26.644531 62.097656 26.574219 C 62.769531 26.53125 63.324219 26.027344 63.433594 25.359375 C 63.570312 24.640625 63.257812 23.910156 62.6875 23.667969 Z M 61.925781 26.070312 C 61.394531 26.0625 61.027344 25.648438 61.023438 25.058594 C 61.023438 24.46875 61.433594 24.035156 61.960938 24.042969 C 62.492188 24.046875 62.855469 24.472656 62.863281 25.0625 C 62.867188 25.648438 62.46875 26.078125 61.925781 26.070312 Z M 61.925781 26.070312 "/>
<path style=" stroke:none;fill-rule:nonzero;fill:rgb(0.392157%,75.294118%,35.686275%);fill-opacity:1;" d="M 50.578125 23.550781 C 50.101562 23.476562 49.617188 23.660156 49.300781 24.027344 C 49.289062 23.824219 49.34375 23.621094 49.460938 23.457031 C 49.664062 23.128906 49.984375 22.957031 50.320312 22.808594 C 50.628906 22.675781 50.929688 22.53125 51.238281 22.40625 C 51.425781 22.332031 51.476562 22.25 51.386719 22.050781 C 51.296875 21.847656 51.226562 21.8125 51.03125 21.90625 C 50.6875 22.074219 50.320312 22.210938 49.976562 22.371094 C 49.660156 22.511719 49.375 22.714844 49.136719 22.960938 C 48.480469 23.65625 48.542969 25.273438 48.910156 25.855469 C 49.269531 26.4375 49.960938 26.714844 50.617188 26.542969 C 51.28125 26.414062 51.765625 25.835938 51.777344 25.160156 C 51.824219 24.265625 51.367188 23.648438 50.578125 23.550781 Z M 50.136719 26.066406 C 49.65625 26.050781 49.296875 25.609375 49.308594 25.046875 C 49.316406 24.460938 49.71875 24.035156 50.261719 24.042969 C 50.773438 24.050781 51.160156 24.503906 51.148438 25.085938 C 51.132812 25.679688 50.71875 26.085938 50.136719 26.066406 Z M 50.136719 26.066406 "/>
<path style=" stroke:none;fill-rule:nonzero;fill:rgb(0.392157%,75.294118%,35.686275%);fill-opacity:1;" d="M 39.710938 23.164062 C 38.734375 23.148438 37.957031 23.863281 37.941406 24.789062 C 37.929688 25.816406 38.652344 26.558594 39.695312 26.574219 C 40.148438 26.59375 40.59375 26.425781 40.921875 26.109375 C 41.253906 25.796875 41.445312 25.359375 41.453125 24.902344 C 41.46875 23.929688 40.707031 23.179688 39.710938 23.164062 Z M 39.640625 26.066406 C 39.046875 26.066406 38.566406 25.542969 38.566406 24.898438 C 38.558594 24.59375 38.675781 24.300781 38.890625 24.085938 C 39.101562 23.871094 39.394531 23.753906 39.699219 23.757812 C 40.328125 23.769531 40.796875 24.277344 40.785156 24.9375 C 40.789062 25.242188 40.671875 25.539062 40.457031 25.753906 C 40.238281 25.964844 39.945312 26.078125 39.640625 26.066406 Z M 39.640625 26.066406 "/>
<path style=" stroke:none;fill-rule:nonzero;fill:rgb(0.392157%,75.294118%,35.686275%);fill-opacity:1;" d="M 76.898438 23.164062 C 76.441406 23.164062 76.003906 23.34375 75.683594 23.667969 C 75.359375 23.992188 75.179688 24.429688 75.183594 24.886719 C 75.183594 25.855469 75.945312 26.578125 76.953125 26.574219 C 77.960938 26.570312 78.703125 25.8125 78.6875 24.847656 C 78.671875 23.878906 77.894531 23.152344 76.898438 23.164062 Z M 76.953125 26.070312 C 76.28125 26.078125 75.804688 25.59375 75.800781 24.886719 C 75.796875 24.589844 75.910156 24.300781 76.121094 24.085938 C 76.328125 23.875 76.613281 23.757812 76.910156 23.757812 C 77.546875 23.757812 78.015625 24.253906 78.019531 24.921875 C 78.023438 25.539062 77.539062 26.0625 76.953125 26.070312 Z M 76.953125 26.070312 "/>
<path style=" stroke:none;fill-rule:nonzero;fill:rgb(0.392157%,75.294118%,35.686275%);fill-opacity:1;" d="M 54.46875 23.207031 C 53.382812 22.96875 52.378906 23.878906 52.476562 25.019531 C 52.597656 26.347656 54.097656 27.019531 55.261719 26.28125 C 55.460938 26.15625 55.453125 26.046875 55.363281 25.863281 C 55.257812 25.640625 55.140625 25.734375 55.007812 25.8125 C 54.929688 25.855469 54.847656 25.898438 54.761719 25.929688 C 54.082031 26.203125 53.371094 25.859375 53.21875 25.207031 C 53.171875 24.992188 53.234375 24.933594 53.4375 24.941406 C 53.742188 24.953125 54.042969 24.941406 54.347656 24.941406 C 54.660156 24.941406 54.972656 24.941406 55.289062 24.941406 C 55.433594 24.941406 55.507812 24.902344 55.523438 24.746094 C 55.617188 24.082031 55.121094 23.355469 54.46875 23.207031 Z M 54.867188 24.464844 C 54.796875 24.609375 54.589844 24.523438 54.445312 24.527344 C 54.113281 24.535156 53.777344 24.519531 53.445312 24.527344 C 53.1875 24.539062 53.179688 24.425781 53.257812 24.234375 C 53.417969 23.882812 53.761719 23.65625 54.144531 23.65625 C 54.363281 23.664062 54.566406 23.761719 54.707031 23.929688 C 54.824219 24.09375 54.949219 24.28125 54.867188 24.464844 Z M 54.867188 24.464844 "/>
<path style=" stroke:none;fill-rule:nonzero;fill:rgb(0.392157%,75.294118%,35.686275%);fill-opacity:1;" d="M 66.871094 24.355469 C 66.859375 23.910156 66.6875 23.519531 66.257812 23.34375 C 65.679688 23.105469 65.109375 23.195312 64.5625 23.476562 C 64.332031 23.597656 64.496094 23.726562 64.546875 23.855469 C 64.609375 24.011719 64.695312 24.003906 64.828125 23.921875 C 65.109375 23.738281 65.457031 23.671875 65.789062 23.738281 C 65.984375 23.765625 66.144531 23.90625 66.207031 24.09375 C 66.328125 24.402344 66.261719 24.488281 65.933594 24.503906 C 65.46875 24.523438 65.003906 24.574219 64.601562 24.851562 C 64.238281 25.085938 64.070312 25.53125 64.1875 25.945312 C 64.273438 26.304688 64.640625 26.59375 65.058594 26.648438 C 65.550781 26.710938 65.925781 26.5 66.28125 26.078125 C 66.292969 26.171875 66.296875 26.269531 66.296875 26.363281 C 66.269531 26.609375 66.4375 26.578125 66.589844 26.578125 C 66.746094 26.582031 66.882812 26.578125 66.878906 26.339844 C 66.867188 25.679688 66.882812 25.019531 66.871094 24.355469 Z M 66.238281 25.3125 C 66.152344 25.769531 65.789062 26.113281 65.378906 26.113281 C 65.074219 26.113281 64.835938 25.941406 64.785156 25.691406 C 64.734375 25.417969 64.859375 25.214844 65.171875 25.085938 C 65.417969 24.984375 65.683594 24.988281 65.941406 24.957031 C 66.246094 24.914062 66.285156 25.0625 66.238281 25.304688 Z M 66.238281 25.3125 "/>
</g>
</simbol>
</svg>
