<svg xmlns="http://www.w3.org/2000/svg" width="92" height="92" viewBox="0 0 92 92">
  <defs>
    <style>
      .cls-1 {
        fill: #fff;
        fill-rule: evenodd;
      }
    </style>
  </defs>
  <path id="Icon" class="cls-1" d="M645,1908.71V1961a8,8,0,0,1-8,8H574a8,8,0,0,1-8-8v-63a8,8,0,0,1,8-8h52.291A16,16,0,1,1,645,1908.71ZM626,1893H575a6,6,0,0,0-6,6v61a6,6,0,0,0,6,6h61a6,6,0,0,0,6-6v-51A16,16,0,0,1,626,1893Zm21,3.33H644.18c-0.338,0-.723.02-1.155,0.05s-0.825.08-1.177,0.12c0.572-.57,1.125-1.16,1.661-1.76a19.236,19.236,0,0,0,1.43-1.8,9.65,9.65,0,0,0,1-1.8,4.587,4.587,0,0,0,.374-1.76,4.658,4.658,0,0,0-.33-1.8,3.908,3.908,0,0,0-.946-1.38,4.39,4.39,0,0,0-1.463-.89,6.108,6.108,0,0,0-4.455.24,8.116,8.116,0,0,0-2.112,1.64l1.76,1.71a7.743,7.743,0,0,1,1.122-.99,2.3,2.3,0,0,1,1.364-.42,1.971,1.971,0,0,1,1.452.53,2.116,2.116,0,0,1,.528,1.55,3.209,3.209,0,0,1-.451,1.55,10.733,10.733,0,0,1-1.254,1.75c-0.536.63-1.174,1.3-1.914,2.02s-1.559,1.48-2.453,2.31v1.82H647v-2.69Zm-17.763,51.66H600.767a2,2,0,0,1,0-3.98h28.466A2,2,0,0,1,629.233,1947.99Zm0-18H600.767a2,2,0,0,1,0-3.98h28.466A2,2,0,0,1,629.233,1929.99Zm0-17H600.767a2,2,0,0,1,0-3.98h28.466A2,2,0,0,1,629.233,1912.99Zm-35.974,39.02H582.741a1.749,1.749,0,0,1-1.753-1.75v-10.52a1.749,1.749,0,0,1,1.753-1.75h10.518a1.749,1.749,0,0,1,1.753,1.75v10.52A1.749,1.749,0,0,1,593.259,1952.01ZM592,1941h-8v8h8v-8Zm1.259-5.99H582.741a1.749,1.749,0,0,1-1.753-1.75v-10.52a1.749,1.749,0,0,1,1.753-1.75h10.518a1.749,1.749,0,0,1,1.753,1.75v10.52A1.749,1.749,0,0,1,593.259,1935.01ZM592,1924h-8v8h8v-8Zm1.259-5.99H582.741a1.749,1.749,0,0,1-1.753-1.75v-10.52a1.749,1.749,0,0,1,1.753-1.75h10.518a1.749,1.749,0,0,1,1.753,1.75v10.52A1.749,1.749,0,0,1,593.259,1918.01ZM592,1907h-8v8h8v-8Z" transform="translate(-566 -1877)"/>
</svg>
