<svg xmlns="http://www.w3.org/2000/svg" width="93" height="92" viewBox="0 0 93 92">
  <defs>
    <style>
      .cls-1 {
        fill: #fff;
        fill-rule: evenodd;
      }
    </style>
  </defs>
  <path id="icon" class="cls-1" d="M259,1908.86V1961a8,8,0,0,1-8,8H188a8,8,0,0,1-8-8v-63a8,8,0,0,1,8-8h53.291A16,16,0,1,1,259,1908.86ZM241,1893H189a6,6,0,0,0-6,6v61a6,6,0,0,0,6,6h61a6,6,0,0,0,6-6v-51.05A15.988,15.988,0,0,1,241,1893Zm20.994,4.39h-2.645v-11.38h-2.4a9.705,9.705,0,0,1-1.556.75,10.54,10.54,0,0,1-1.957.53v2.01h2.646v8.09h-3.068v2.63h8.981v-2.63ZM237.357,1956c-5.172,0-9.394-4.83-9.621-10.85L220,1930.65l-7.735,14.5c-0.228,6.02-4.45,10.85-9.622,10.85-5.317,0-9.643-5.09-9.643-11.36s4.326-11.35,9.643-11.35a9.541,9.541,0,0,1,8.451,5.89l6.729-12.6-11.1-20.81a1.87,1.87,0,0,1,.814-2.55,1.939,1.939,0,0,1,2.6.8L220,1922.5l9.863-18.48a1.939,1.939,0,0,1,2.6-.8,1.87,1.87,0,0,1,.814,2.55l-11.1,20.81,6.729,12.6a9.541,9.541,0,0,1,8.451-5.89c5.317,0,9.643,5.09,9.643,11.35S242.674,1956,237.357,1956Zm-34.714-18.93c-3.19,0-5.786,3.4-5.786,7.57s2.6,7.57,5.786,7.57,5.786-3.39,5.786-7.57S205.833,1937.07,202.643,1937.07Zm34.714,0c-3.19,0-5.786,3.4-5.786,7.57s2.6,7.57,5.786,7.57,5.786-3.39,5.786-7.57S240.547,1937.07,237.357,1937.07Z" transform="translate(-180 -1877)"/>
</svg>
